<svg xmlns="http://www.w3.org/2000/svg" version="1.1" xmlns:xlink="http://www.w3.org/1999/xlink" xmlns:svgjs="http://svgjs.com/svgjs" width="1440" height="560" preserveAspectRatio="none" viewBox="0 0 1440 560"><g mask="url(&quot;#SvgjsMask1006&quot;)" fill="none"><rect width="1440" height="560" x="0" y="0" fill="rgba(60, 26, 138, 1)"></rect><path d="M0,602.04C110.959,586.582,217.722,543.206,300.781,468.025C376.786,399.23,392.334,291.529,442.081,201.892C497.258,102.47,601.06,25.841,609.129,-87.579C617.718,-208.306,560.239,-325.572,486.429,-421.493C409.938,-520.898,304.38,-592.548,186.85,-636.353C63.245,-682.422,-72.107,-713.788,-198.745,-676.864C-325.479,-639.912,-430.35,-545.958,-502.448,-435.374C-569.499,-332.531,-586.504,-206.9,-585.189,-84.137C-584.012,25.783,-531.647,122.459,-495.364,226.225C-454.907,341.928,-457.585,485.986,-359.935,560.07C-261.715,634.586,-122.109,619.051,0,602.04" fill="#30156e"></path><path d="M1440 1186.922C1557.963 1203.461 1678.662 1150.771 1772.5720000000001 1077.492 1862.409 1007.3910000000001 1908.4940000000001 898.768 1946.81 791.452 1982.531 691.405 1993.775 587.49 1985.3319999999999 481.593 1976.422 369.834 1955.075 259.96 1896.801 164.18 1831.105 56.202 1754.339-61.91399999999999 1633.041-97.43700000000001 1511.756-132.95600000000002 1381.475-78.71000000000004 1269.866-19.422000000000025 1171.633 32.76099999999997 1108.27 125.92700000000002 1043.002 215.99900000000002 983.0319999999999 298.76 926.1 383.034 905.675 483.176 884.416 587.408 876.932 700.288 924.856 795.259 972.127 888.9359999999999 1078.879 928.438 1162.407 991.944 1254.281 1061.796 1325.705 1170.897 1440 1186.922" fill="#481fa6"></path></g><defs><mask id="SvgjsMask1006"><rect width="1440" height="560" fill="#ffffff"></rect></mask></defs></svg>